<svg xmlns="http://www.w3.org/2000/svg" viewBox="0 0 69.58 67.99"><defs><style>.cls-1{fill:#008bce;}.cls-2{fill:#63cdf6;}.cls-3{fill:#00aeef;}</style></defs><title>Asset 3xxxhdpi</title><g id="Layer_2" data-name="Layer 2"><g id="Layer_1-2" data-name="Layer 1"><path class="cls-1" d="M24.09,33.07c6.21-6,7-9,14.52-17.54,7-8,11-10.57,13.74-12.09,4-2.21,8.44-4.63,12.23-2.79S70,8.1,69.47,12.3c-.92,7.09-8,11.32-13.71,14.72-8,4.75-11.21,4-18.56,7.67A52.84,52.84,0,0,0,19.45,49.41,16.15,16.15,0,0,0,14,41.14,69.51,69.51,0,0,0,24.09,33.07Z"/><path class="cls-2" d="M2.62,68C1.92,68-.16,63.77,0,58.64a30.6,30.6,0,0,0,1.16,5.58A29.54,29.54,0,0,0,2.62,68Z"/><path class="cls-3" d="M5.38,60a7.69,7.69,0,0,0-.89,1c-2.3,3.24-1.22,6.92-1.87,7a29.54,29.54,0,0,1-1.45-3.77A30.6,30.6,0,0,1,0,58.64l.12,0c1.31.31,2.09-.63,3.26-.22.88.3.86,1,1.81,1.45Z"/><path class="cls-1" d="M15.45,54.67C13.26,58.09,8.55,56.91,5.38,60l-.18-.07c-1-.47-.93-1.15-1.81-1.45-1.17-.41-1.95.53-3.26.22l-.12,0a16,16,0,0,1,1.08-5.4c2.29-5.78,8.62-11,12.17-9.39C16.21,45.16,17.63,51.28,15.45,54.67Z"/></g></g></svg>