<svg xmlns="http://www.w3.org/2000/svg" viewBox="0 0 138 137.82"><defs><style>.cls-1{fill:none;stroke:#fff;stroke-miterlimit:10;stroke-width:3px;}.cls-2{fill:#fff;}</style></defs><title>Asset 2</title><g id="Layer_2" data-name="Layer 2"><g id="Layer_1-2" data-name="Layer 1"><ellipse class="cls-1" cx="69" cy="68.91" rx="67.5" ry="67.41"/><path class="cls-2" d="M53.19,72.08c.71,21.59,8.65,36.38,15.81,36.38S84.1,93.67,84.81,72.08Z"/><path class="cls-2" d="M69,29.36c-7.16,0-15.1,14.79-15.81,36.39H84.81C84.1,44.15,76.16,29.36,69,29.36Z"/><path class="cls-2" d="M91.15,65.75h20.43A42.71,42.71,0,0,0,78.69,27.32C85.8,34.08,90.63,48.29,91.15,65.75Z"/><path class="cls-2" d="M91.15,72.08c-.52,17.45-5.35,31.66-12.46,38.43a42.72,42.72,0,0,0,32.89-38.43Z"/><path class="cls-2" d="M46.85,72.08H26.42a42.72,42.72,0,0,0,32.89,38.43C52.21,103.74,47.37,89.53,46.85,72.08Z"/><path class="cls-2" d="M46.85,65.75c.52-17.46,5.36-31.67,12.46-38.43A42.71,42.71,0,0,0,26.42,65.75Z"/></g></g></svg>