<svg xmlns="http://www.w3.org/2000/svg" viewBox="0 0 138 137.82"><defs><style>.cls-1{fill:none;stroke:#fff;stroke-miterlimit:10;stroke-width:3px;}.cls-2{fill:#fff;}</style></defs><title>Asset 4</title><g id="Layer_2" data-name="Layer 2"><g id="Layer_1-2" data-name="Layer 1"><ellipse class="cls-1" cx="69" cy="68.91" rx="67.5" ry="67.41"/><path class="cls-2" d="M101.86,41.49a1.54,1.54,0,0,0-1-1.14,5.36,5.36,0,0,0-2.83.2S34.89,63.23,31.29,65.74c-.78.54-1,.85-1.17,1.22-.62,1.79,1.32,2.58,1.32,2.58l16.26,5.3a1.87,1.87,0,0,0,.82,0c3.7-2.34,37.22-23.5,39.15-24.22.31-.09.53,0,.47.23-.77,2.71-29.88,28.59-29.88,28.59a1.58,1.58,0,0,0-.18.3l0,0L56.52,95.79s-.63,4.95,4.31,0c3.48-3.48,6.86-6.4,8.54-7.82C75,91.83,81,96.1,83.58,98.34a4.52,4.52,0,0,0,3.29,1.27c2.47-.1,3.15-2.8,3.15-2.8s11.5-46.27,11.89-52.47c0-.61.08-1,.09-1.41A5.33,5.33,0,0,0,101.86,41.49Z"/></g></g></svg>