<svg xmlns="http://www.w3.org/2000/svg" viewBox="0 0 212.37 129"><defs><style>.cls-1,.cls-2{fill:none;}.cls-1{stroke:#2333eb;stroke-miterlimit:10;stroke-width:1.5px;}</style></defs><title>boxcss</title><g id="Layer_2" data-name="Layer 2"><g id="Layer_1-2" data-name="Layer 1"><path class="cls-1" d="M84.07,61.74l16.88.44q-1.68,13.09-9.08,20.24T72.56,89.57A27.59,27.59,0,0,1,52.3,81.45,27.29,27.29,0,0,1,44.14,61.3a27.55,27.55,0,0,1,8.32-20.36A28,28,0,0,1,73,32.68a27,27,0,0,1,20,8.1q5.55,5.59,7.86,15.6L83.56,57.53q-2.9-8.88-11-8.89a11.16,11.16,0,0,0-8.51,3.57,12.77,12.77,0,0,0-3.36,9.09A12.27,12.27,0,0,0,64,70.1a11,11,0,0,0,8.33,3.47,11,11,0,0,0,8.16-3.06Q83.53,67.47,84.07,61.74Z"/><path class="cls-1" d="M134,33.79V49.24a9,9,0,0,0-2.7-.6A4.21,4.21,0,0,0,128.18,50a4.49,4.49,0,0,0-1.31,3.26,8.79,8.79,0,0,0,1.43,4.12l1.23,2.15a22.44,22.44,0,0,1,3.33,11.19,18,18,0,0,1-5.62,13.38,18.89,18.89,0,0,1-13.71,5.48,18,18,0,0,1-7.7-1.79V72.1a7.86,7.86,0,0,0,4.09,1.47,5.18,5.18,0,0,0,3.51-1.21,3.84,3.84,0,0,0,1.41-3c0-.79-.76-2.52-2.26-5.2A25.48,25.48,0,0,1,109,51.42a18.14,18.14,0,0,1,5.46-13.2,17.69,17.69,0,0,1,13-5.54A19.9,19.9,0,0,1,134,33.79Z"/><path class="cls-1" d="M167.64,33.79V49.24a9.12,9.12,0,0,0-2.7-.6A4.22,4.22,0,0,0,161.8,50a4.53,4.53,0,0,0-1.31,3.26,8.91,8.91,0,0,0,1.43,4.12l1.23,2.15a22.44,22.44,0,0,1,3.33,11.19,18,18,0,0,1-5.61,13.38,18.93,18.93,0,0,1-13.72,5.48,18,18,0,0,1-7.7-1.79V72.1a7.89,7.89,0,0,0,4.09,1.47,5.18,5.18,0,0,0,3.51-1.21,3.84,3.84,0,0,0,1.41-3q0-1.18-2.26-5.2a25.47,25.47,0,0,1-3.61-12.7,18.14,18.14,0,0,1,5.46-13.2,17.66,17.66,0,0,1,13-5.54A20,20,0,0,1,167.64,33.79Z"/><path class="cls-2" d="M212.37,0H0V129H212.37V0Zm-9.69,101.18A18.82,18.82,0,0,1,183.86,120H9.68V9h193Z"/></g></g></svg>