<svg xmlns="http://www.w3.org/2000/svg" viewBox="0 0 212.37 129"><defs><style>.cls-1,.cls-2{fill:none;}.cls-2{stroke:#2333eb;stroke-miterlimit:10;stroke-width:1.5px;}</style></defs><title>boxhtml</title><g id="Layer_2" data-name="Layer 2"><g id="Layer_1-2" data-name="Layer 1"><text/><path class="cls-1" d="M212.37,0H0V129H212.37V0Zm-9.69,101.18A18.82,18.82,0,0,1,183.86,120H9.68V9h193Z"/><path class="cls-2" d="M37.51,56.63V70.57H33.13v20H17.41V37.73H33.13v18.9ZM55.9,37.73V90.58H40.18V37.73Z"/><path class="cls-2" d="M89.47,52.91V90.58H73.75V52.91h-12V37.73h39.77V52.91Z"/><path class="cls-2" d="M106.19,90.58V52.48a16.06,16.06,0,0,1,4.3-11.57,14.71,14.71,0,0,1,11.15-4.49q8.13,0,12.51,7.47a17.4,17.4,0,0,1,5.73-5.75,15.14,15.14,0,0,1,7.55-1.72q7.13,0,10.92,4.49t3.79,12.93V90.58H146.42V56.2a9.12,9.12,0,0,0-.41-3.39,1.65,1.65,0,0,0-1.64-.83q-2.33,0-2.33,4V90.58H126.33V56.2a8.78,8.78,0,0,0-.43-3.37,1.69,1.69,0,0,0-1.67-.85c-1.54,0-2.32,1.41-2.32,4.22V90.58Z"/><path class="cls-2" d="M170.58,37.73H186.3v31.4q0,3.69,1.18,4.9c.79.81,2.34,1.22,4.67,1.22H193V90.58h-4.18q-8.59,0-13.4-5t-4.8-13.92Z"/></g></g></svg>