<svg xmlns="http://www.w3.org/2000/svg" viewBox="0 0 212.37 129"><defs><style>.cls-1,.cls-2{fill:none;}.cls-1{stroke:#2333eb;stroke-miterlimit:10;stroke-width:1.5px;}</style></defs><title>boxjs</title><g id="Layer_2" data-name="Layer 2"><g id="Layer_1-2" data-name="Layer 1"><path class="cls-1" d="M98.26,34.22v36.3q0,8.2-4.65,13.55a15,15,0,0,1-11.8,5.34,16.35,16.35,0,0,1-4.89-.9V73a5.53,5.53,0,0,0,2.17.51q3.15,0,3.15-5.08V34.22Z"/><path class="cls-1" d="M132.74,34V49.33a9.2,9.2,0,0,0-2.68-.59,4.22,4.22,0,0,0-3.12,1.34,4.48,4.48,0,0,0-1.3,3.24,8.84,8.84,0,0,0,1.42,4.1l1.22,2.13a22.31,22.31,0,0,1,3.32,11.12A17.87,17.87,0,0,1,126,84a18.81,18.81,0,0,1-13.64,5.44,18,18,0,0,1-7.65-1.77V72.05a7.77,7.77,0,0,0,4.06,1.46,5.2,5.2,0,0,0,3.5-1.2,3.83,3.83,0,0,0,1.4-3q0-1.19-2.25-5.16a25.29,25.29,0,0,1-3.59-12.63,18.08,18.08,0,0,1,5.42-13.12,17.57,17.57,0,0,1,13-5.5A20,20,0,0,1,132.74,34Z"/><path class="cls-2" d="M212.37,0H0V129H212.37V0Zm-9.69,101.18A18.82,18.82,0,0,1,183.86,120H9.68V9h193Z"/></g></g></svg>